<svg id="svg" version="1.1" xmlns="http://www.w3.org/2000/svg" xmlns:xlink="http://www.w3.org/1999/xlink" width="400" height="400" viewBox="0, 0, 400,400"><g id="svgg"><path id="path0" d="M88.889 111.111 L 88.889 177.778 122.222 177.778 L 155.556 177.778 155.556 111.111 L 155.556 44.444 122.222 44.444 L 88.889 44.444 88.889 111.111 M88.889 233.333 L 88.889 266.667 122.222 266.667 L 155.556 266.667 155.556 233.333 L 155.556 200.000 122.222 200.000 L 88.889 200.000 88.889 233.333 M111.111 322.222 L 111.111 355.556 133.333 355.556 L 155.556 355.556 155.556 322.222 L 155.556 288.889 133.333 288.889 L 111.111 288.889 111.111 322.222 M222.222 322.222 L 222.222 355.556 244.444 355.556 L 266.667 355.556 266.667 322.222 L 266.667 288.889 244.444 288.889 L 222.222 288.889 222.222 322.222 " stroke="none" fill="#646464" fill-rule="evenodd"></path><path id="path1" d="M155.556 66.667 L 155.556 88.889 166.667 88.889 L 177.778 88.889 177.778 77.778 L 177.778 66.667 244.444 66.667 L 311.111 66.667 311.111 77.778 L 311.111 88.889 322.222 88.889 L 333.333 88.889 333.333 111.111 L 333.333 133.333 322.222 133.333 L 311.111 133.333 311.111 144.444 L 311.111 155.556 288.889 155.556 L 266.667 155.556 266.667 144.444 L 266.667 133.333 244.444 133.333 L 222.222 133.333 222.222 144.444 L 222.222 155.556 200.000 155.556 L 177.778 155.556 177.778 144.444 L 177.778 133.333 166.667 133.333 L 155.556 133.333 155.556 155.556 L 155.556 177.778 255.556 177.778 L 355.556 177.778 355.556 111.111 L 355.556 44.444 255.556 44.444 L 155.556 44.444 155.556 66.667 M155.556 233.333 L 155.556 266.667 244.444 266.667 L 333.333 266.667 333.333 233.333 L 333.333 200.000 244.444 200.000 L 155.556 200.000 155.556 233.333 M266.667 322.222 L 266.667 355.556 288.889 355.556 L 311.111 355.556 311.111 322.222 L 311.111 288.889 288.889 288.889 L 266.667 288.889 266.667 322.222 " stroke="none" fill="#848c84" fill-rule="evenodd"></path><path id="path2" d="M133.333 11.111 L 133.333 22.222 144.444 22.222 L 155.556 22.222 155.556 11.111 L 155.556 0.000 144.444 0.000 L 133.333 0.000 133.333 11.111 M177.778 111.111 L 177.778 133.333 200.000 133.333 L 222.222 133.333 222.222 111.111 L 222.222 88.889 200.000 88.889 L 177.778 88.889 177.778 111.111 M266.667 111.111 L 266.667 133.333 288.889 133.333 L 311.111 133.333 311.111 111.111 L 311.111 88.889 288.889 88.889 L 266.667 88.889 266.667 111.111 " stroke="none" fill="#2fbf8d" fill-rule="evenodd"></path><path id="path3" d="M88.889 188.889 L 88.889 200.000 222.222 200.000 L 355.556 200.000 355.556 188.889 L 355.556 177.778 222.222 177.778 L 88.889 177.778 88.889 188.889 M88.889 277.778 L 88.889 288.889 211.111 288.889 L 333.333 288.889 333.333 277.778 L 333.333 266.667 211.111 266.667 L 88.889 266.667 88.889 277.778 M244.444 377.778 L 244.444 400.000 266.667 400.000 L 288.889 400.000 288.889 377.778 L 288.889 355.556 266.667 355.556 L 244.444 355.556 244.444 377.778 " stroke="none" fill="#545454" fill-rule="evenodd"></path><path id="path4" d="M133.333 33.333 L 133.333 44.444 144.444 44.444 L 155.556 44.444 155.556 33.333 L 155.556 22.222 144.444 22.222 L 133.333 22.222 133.333 33.333 M177.778 77.778 L 177.778 88.889 166.667 88.889 L 155.556 88.889 155.556 111.111 L 155.556 133.333 166.667 133.333 L 177.778 133.333 177.778 144.444 L 177.778 155.556 200.000 155.556 L 222.222 155.556 222.222 144.444 L 222.222 133.333 244.444 133.333 L 266.667 133.333 266.667 144.444 L 266.667 155.556 288.889 155.556 L 311.111 155.556 311.111 144.444 L 311.111 133.333 322.222 133.333 L 333.333 133.333 333.333 111.111 L 333.333 88.889 322.222 88.889 L 311.111 88.889 311.111 77.778 L 311.111 66.667 244.444 66.667 L 177.778 66.667 177.778 77.778 M222.222 111.111 L 222.222 133.333 200.000 133.333 L 177.778 133.333 177.778 111.111 L 177.778 88.889 200.000 88.889 L 222.222 88.889 222.222 111.111 M311.111 111.111 L 311.111 133.333 288.889 133.333 L 266.667 133.333 266.667 111.111 L 266.667 88.889 288.889 88.889 L 311.111 88.889 311.111 111.111 M66.667 322.222 L 66.667 355.556 77.778 355.556 L 88.889 355.556 88.889 377.778 L 88.889 400.000 111.111 400.000 L 133.333 400.000 133.333 377.778 L 133.333 355.556 122.222 355.556 L 111.111 355.556 111.111 322.222 L 111.111 288.889 88.889 288.889 L 66.667 288.889 66.667 322.222 " stroke="none" fill="#444444" fill-rule="evenodd"></path></g></svg>